<?xml version="1.0" standalone="no"?>
<!DOCTYPE svg PUBLIC "-//W3C//DTD SVG 20010904//EN"
 "http://www.w3.org/TR/2001/REC-SVG-20010904/DTD/svg10.dtd">
<svg version="1.0" xmlns="http://www.w3.org/2000/svg"
 width="501.000000pt" height="202.000000pt" viewBox="0 0 501.000000 202.000000"
 preserveAspectRatio="xMidYMid meet">

<g transform="translate(0.000000,202.000000) scale(0.100000,-0.100000)"
fill="#000000" stroke="none">
<path d="M675 1827 c-216 -55 -347 -268 -332 -537 7 -118 35 -210 88 -289 47
-70 95 -111 176 -148 51 -24 71 -28 158 -28 93 0 105 2 165 32 l65 33 43 -30
c23 -17 47 -30 52 -30 6 0 10 61 10 155 0 86 -4 155 -9 155 -8 0 -71 -159 -71
-179 0 -16 -73 -74 -119 -94 -65 -30 -181 -30 -236 0 -57 30 -100 79 -131 147
-37 81 -52 265 -37 447 10 109 16 137 42 193 34 71 72 109 141 139 86 38 216
20 290 -42 26 -21 44 -52 70 -120 50 -132 60 -122 60 59 0 106 -3 150 -11 150
-7 0 -31 -15 -54 -34 l-41 -34 -62 30 c-73 36 -174 46 -257 25z"/>
<path d="M1593 1825 c-79 -22 -131 -51 -194 -112 -171 -163 -198 -492 -58
-703 77 -114 191 -178 334 -187 142 -10 257 31 349 123 94 95 141 223 140 389
0 156 -43 273 -135 370 -108 114 -280 162 -436 120z m244 -41 c87 -42 150
-135 173 -254 13 -71 13 -346 -1 -412 -35 -164 -157 -278 -299 -278 -20 0 -61
7 -91 16 -72 21 -156 105 -190 190 -23 56 -24 71 -24 279 0 207 1 224 24 282
68 179 245 256 408 177z"/>
<path d="M2320 950 c-27 -27 -26 -71 3 -98 32 -30 71 -28 96 4 27 35 27 65 -2
92 -29 27 -71 28 -97 2z"/>
<path d="M4534 895 c-198 -67 -361 -219 -466 -435 -65 -133 -101 -186 -140
-206 -46 -24 -54 -9 -49 99 10 205 8 233 -18 261 -32 34 -79 35 -119 1 -16
-14 -48 -61 -71 -105 -23 -44 -44 -80 -45 -80 -2 0 0 17 5 38 13 56 11 70 -11
77 -29 9 -48 -10 -56 -54 -8 -47 -47 -113 -97 -169 -69 -74 -129 -93 -147 -46
-21 55 -13 84 40 136 64 63 104 130 96 162 -7 29 -55 50 -94 41 -52 -11 -91
-69 -111 -163 -23 -108 -106 -252 -146 -252 -38 0 -49 71 -34 217 13 132 4
182 -36 209 -54 36 -124 -7 -177 -109 l-22 -42 -6 37 c-13 72 -62 117 -115
104 -29 -7 -75 -73 -101 -145 -10 -25 -22 -50 -27 -56 -7 -7 -8 -4 -4 7 4 10
9 40 13 67 6 44 4 50 -15 56 -31 9 -48 -9 -55 -58 -14 -90 -84 -167 -152 -167
-39 0 -39 -1 -19 64 29 97 14 207 -34 243 -43 33 -123 4 -137 -50 -3 -12 -20
-31 -37 -42 -19 -12 -43 -42 -59 -75 -38 -78 -85 -121 -140 -127 -66 -6 -74 3
-58 75 18 89 10 180 -20 204 -41 33 -92 -2 -103 -69 -8 -46 14 -125 46 -167
32 -41 32 -47 11 -89 -25 -48 -55 -77 -81 -77 -37 0 -54 55 -62 195 -5 96 -9
120 -21 120 -9 0 -20 -21 -31 -60 -24 -92 -78 -211 -110 -246 -67 -72 -90 -3
-70 210 18 193 18 185 -1 189 -38 8 -84 -254 -64 -363 14 -73 85 -109 135 -67
12 9 39 50 60 91 l38 73 8 -38 c27 -148 159 -169 220 -35 17 40 18 40 61 34
56 -7 87 1 127 37 l33 29 12 -44 c32 -118 152 -157 218 -70 23 31 32 35 73 35
50 0 89 20 128 67 l23 28 -2 -85 c-3 -81 -2 -85 20 -88 16 -3 22 2 22 17 0 71
105 321 146 348 23 15 26 15 42 -1 19 -19 23 -111 9 -259 -8 -88 -8 -89 14
-85 19 3 28 22 64 135 60 188 113 261 171 239 15 -6 16 -17 8 -99 -4 -50 -9
-133 -9 -184 0 -82 2 -94 23 -116 30 -31 67 -41 101 -27 28 11 80 82 101 139
l14 34 13 -46 c36 -123 145 -112 253 24 l39 50 3 -83 c3 -73 5 -83 21 -83 15
0 27 24 57 115 44 135 86 224 125 263 29 28 42 32 61 19 22 -14 24 -51 9 -151
-8 -55 -15 -119 -15 -142 0 -79 42 -129 107 -129 44 0 102 71 152 185 81 186
190 323 334 418 116 77 244 115 350 104 35 -4 44 -3 27 3 -53 17 -172 10 -246
-15z m-2228 -283 c23 -15 36 -56 35 -117 0 -66 -17 -152 -32 -161 -31 -19 -86
65 -96 147 -6 54 4 62 36 28 13 -14 21 -17 26 -9 8 13 -10 37 -36 45 -25 8
-24 30 1 55 21 21 47 25 66 12z m-436 -52 c9 -34 -2 -175 -15 -188 -7 -7 -45
61 -56 103 -19 71 7 144 47 128 8 -3 18 -22 24 -43z m1564 14 c9 -24 -22 -81
-76 -138 l-49 -51 6 35 c20 110 51 170 89 170 13 0 27 -7 30 -16z m-1250 -126
c9 -44 50 -105 87 -127 l30 -18 -27 -32 c-21 -25 -33 -31 -57 -29 -47 5 -72
46 -72 121 0 102 25 156 39 85z" fill="#ff5757"/>
</g>
</svg>
